ply
format ascii 1.0
comment VCGLIB generated
element vertex 172
property float x
property float y
property float z
property float nx
property float ny
property float nz
property float texture_u
property float texture_v
element face 288
property list uchar int vertex_indices
end_header
-2.384186e-08 1 -4.768372e-08 -4.235956e-06 4 4.239716e-06 0.500000 0.500000
0.12941 0.9829652 -4.768372e-08 1.135233 3.834636 -0.08253112 0.629400 0.500000
0.112075 0.9829652 -0.06470504 0.9418652 3.834641 -0.6390792 0.612100 0.564700
0.06470498 0.9829652 -0.112075 0.496104 3.834641 -1.024408 0.564700 0.612100
-2.384186e-08 0.9829652 -0.12941 -0.08253108 3.834636 -1.135233 0.500000 0.629400
-0.06470502 0.9829652 -0.112075 -0.6391012 3.834642 -0.9418428 0.435300 0.612100
-0.11207 0.9829652 -0.06470504 -1.024414 3.834635 -0.4961336 0.387900 0.564700
-0.12941 0.9829652 -4.768372e-08 -1.13522 3.83464 0.08254708 0.370600 0.500000
-0.11207 0.9829652 0.06470494 -0.9418607 3.834637 0.6391056 0.387900 0.435300
-0.06470502 0.9829652 0.11207 -0.4961484 3.834636 1.024403 0.435300 0.387900
-2.384186e-08 0.9829652 0.12941 0.08254708 3.83464 1.13522 0.500000 0.370600
0.06470498 0.9829652 0.11207 0.6390836 3.834635 0.9418828 0.564700 0.387900
0.112075 0.9829652 0.06470494 1.024397 3.834642 0.4961192 0.612100 0.435300
0.25 0.933015 -4.768372e-08 1.998106 3.464964 -0.04002424 0.750000 0.500000
0.21651 0.933015 -0.125 1.710392 3.464977 -1.033681 0.716500 0.625000
0.125 0.933015 -0.21651 0.9643548 3.464976 -1.750418 0.625000 0.716500
-2.384186e-08 0.933015 -0.25 -0.04002996 3.464962 -1.998108 0.500000 0.750000
-0.125 0.933015 -0.21651 -1.033704 3.464974 -1.710384 0.375000 0.716500
-0.216505 0.933015 -0.125 -1.750445 3.464958 -0.9643701 0.283500 0.625000
-0.25 0.933015 -4.768372e-08 -1.998115 3.464958 0.04002328 0.250000 0.500000
-0.216505 0.933015 0.125 -1.710399 3.464958 1.033732 0.283500 0.375000
-0.125 0.933015 0.216505 -0.9643992 3.464955 1.750434 0.375000 0.283500
-2.384186e-08 0.933015 0.25 0.04001756 3.46496 1.998112 0.500000 0.250000
0.125 0.933015 0.216505 1.033709 3.464961 1.710407 0.625000 0.283500
0.21651 0.933015 0.125 1.750408 3.464973 0.9643841 0.716500 0.375000
0.353555 0.853555 -4.768372e-08 2.826693 2.829978 -0.03212636 0.853600 0.500000
0.30619 0.853555 -0.17678 2.431931 2.829983 -1.441149 0.806200 0.676800
0.17678 0.853555 -0.30619 1.385505 2.82999 -2.464048 0.676800 0.806200
-2.384186e-08 0.853555 -0.353555 -0.03214233 2.829978 -2.826692 0.500000 0.853600
-0.176775 0.853555 -0.30619 -1.441148 2.829986 -2.431928 0.323200 0.806200
-0.306185 0.853555 -0.17678 -2.464048 2.829995 -1.385494 0.193800 0.676800
-0.35355 0.853555 -4.768372e-08 -2.826687 2.829984 0.03212411 0.146400 0.500000
-0.306185 0.853555 0.176775 -2.43192 2.829989 1.441156 0.193800 0.323200
-0.176775 0.853555 0.306185 -1.385512 2.829988 2.464046 0.323200 0.193800
-2.384186e-08 0.853555 0.35355 0.03210826 2.829983 2.826689 0.500000 0.146400
0.17678 0.853555 0.306185 1.441157 2.829985 2.431923 0.676800 0.193800
0.30619 0.853555 0.176775 2.464046 2.829984 1.385523 0.806200 0.323200
0.433015 0.75 -4.768372e-08 3.46305 2.001696 -0.02232684 0.933000 0.500000
0.375 0.75 -0.21651 2.987926 2.001693 -1.750862 0.875000 0.716500
0.21651 0.75 -0.375 1.712186 2.001689 -3.010259 0.716500 0.875000
-2.384186e-08 0.75 -0.433015 -0.02234741 2.001696 -3.46305 0.500000 0.933000
-0.216505 0.75 -0.375 -1.750863 2.001682 -2.987934 0.283500 0.875000
-0.375 0.75 -0.21651 -3.010263 2.001688 -1.712179 0.125000 0.716500
-0.43301 0.75 -4.768372e-08 -3.463056 2.001686 0.02234893 0.067000 0.500000
-0.375 0.75 0.216505 -2.987932 2.001687 1.750861 0.125000 0.283500
-0.216505 0.75 0.375 -1.712175 2.00169 3.010265 0.283500 0.125000
-2.384186e-08 0.75 0.43301 0.02232845 2.001686 3.463056 0.500000 0.067000
0.21651 0.75 0.375 1.75086 2.001698 2.987925 0.716500 0.125000
0.375 0.75 0.216505 3.01026 2.001692 1.712181 0.875000 0.283500
0.482965 0.62941 -4.768372e-08 3.863391 1.036377 -0.01140908 0.983000 0.500000
0.41826 0.62941 -0.241485 3.340087 1.036368 -1.941588 0.918300 0.741500
0.241485 0.62941 -0.41826 1.921798 1.036374 -3.35151 0.741500 0.918300
-2.384186e-08 0.62941 -0.482965 -0.01142378 1.03638 -3.86339 0.500000 0.983000
-0.24148 0.62941 -0.41826 -1.941597 1.03638 -3.340078 0.258500 0.918300
-0.418255 0.62941 -0.241485 -3.351503 1.036379 -1.921808 0.081700 0.741500
-0.48296 0.62941 -4.768372e-08 -3.86339 1.036383 0.01143551 0.017000 0.500000
-0.418255 0.62941 0.24148 -3.340085 1.036377 1.941586 0.081700 0.258500
-0.24148 0.62941 0.418255 -1.921811 1.036378 3.351502 0.258500 0.081700
-2.384186e-08 0.62941 0.48296 0.01142053 1.03638 3.863391 0.500000 0.017000
0.241485 0.62941 0.418255 1.941576 1.036366 3.340094 0.741500 0.081700
0.41826 0.62941 0.24148 3.351509 1.036373 1.921801 0.918300 0.258500
0.5 0.5 -4.768372e-08 3.991432 0.2616729 -0.001424294 1.000000 0.500000
0.433015 0.5 -0.25 3.455973 0.2616625 -1.996943 0.933000 0.750000
0.25 0.5 -0.433015 1.994465 0.2616576 -3.457404 0.750000 0.933000
-2.384186e-08 0.5 -0.5 -0.001429034 0.2616701 -3.991432 0.500000 1.000000
-0.25 0.5 -0.433015 -1.996964 0.261679 -3.45596 0.250000 0.933000
-0.43301 0.5 -0.25 -3.457397 0.2616875 -1.994475 0.067000 0.750000
-0.5 0.5 -4.768372e-08 -3.991429 0.2617086 0.001435758 0.000000 0.500000
-0.43301 0.5 0.25 -3.455956 0.2617117 1.996966 0.067000 0.250000
-0.25 0.5 0.43301 -1.994492 0.2617097 3.457385 0.250000 0.067000
-2.384186e-08 0.5 0.5 0.001431018 0.261712 3.991429 0.500000 0.000000
0.25 0.5 0.43301 1.996944 0.2616956 3.45597 0.750000 0.067000
0.433015 0.5 0.25 3.457393 0.2616795 1.994482 0.933000 0.250000
0.5 -0.5 -4.768372e-08 3.991432 -0.2616697 0.001429116 0.000000 0.000000
0.433015 -0.5 -0.25 3.457404 -0.2616574 -1.994466 0.083300 0.000000
0.25 -0.5 -0.433015 1.996943 -0.2616626 -3.455974 0.166700 0.000000
-2.384186e-08 -0.5 -0.5 0.001424294 -0.2616733 -3.991432 0.250000 0.000000
-0.25 -0.5 -0.433015 -1.994481 -0.26168 -3.457394 0.333300 0.000000
-0.43301 -0.5 -0.25 -3.455971 -0.2616956 -1.996944 0.416700 0.000000
-0.5 -0.5 -4.768372e-08 -3.991429 -0.2617117 -0.001430977 0.500000 0.000000
-0.43301 -0.5 0.25 -3.457385 -0.2617096 1.994492 0.583300 0.000000
-0.25 -0.5 0.43301 -1.996966 -0.2617118 3.455956 0.666700 0.000000
-2.384186e-08 -0.5 0.5 -0.00143584 -0.2617087 3.991429 0.750000 0.000000
0.25 -0.5 0.43301 1.994476 -0.2616872 3.457396 0.833300 0.000000
0.433015 -0.5 0.25 3.45596 -0.2616784 1.996965 0.916700 0.000000
0.482965 -0.62941 -4.768372e-08 3.86339 -1.036381 0.01142415 0.983000 0.500000
0.41826 -0.62941 -0.241485 3.35151 -1.036374 -1.921798 0.918300 0.741500
0.241485 -0.62941 -0.41826 1.941587 -1.036368 -3.340087 0.741500 0.918300
-2.384186e-08 -0.62941 -0.482965 0.01140885 -1.036378 -3.863391 0.500000 0.983000
-0.24148 -0.62941 -0.41826 -1.921801 -1.036373 -3.351509 0.258500 0.918300
-0.418255 -0.62941 -0.241485 -3.340094 -1.036366 -1.941576 0.081700 0.741500
-0.48296 -0.62941 -4.768372e-08 -3.863391 -1.03638 -0.01142057 0.017000 0.500000
-0.418255 -0.62941 0.24148 -3.351502 -1.036378 1.921811 0.081700 0.258500
-0.24148 -0.62941 0.418255 -1.941585 -1.036378 3.340085 0.258500 0.081700
-2.384186e-08 -0.62941 0.48296 -0.01143562 -1.036383 3.86339 0.500000 0.017000
0.241485 -0.62941 0.418255 1.921808 -1.036379 3.351503 0.741500 0.081700
0.41826 -0.62941 0.24148 3.340078 -1.03638 1.941597 0.918300 0.258500
0.433015 -0.75 -4.768372e-08 3.46305 -2.001695 0.0223473 0.933000 0.500000
0.375 -0.75 -0.21651 3.010259 -2.001689 -1.712186 0.875000 0.716500
0.21651 -0.75 -0.375 1.750862 -2.001693 -2.987927 0.716500 0.875000
-2.384186e-08 -0.75 -0.433015 0.02232689 -2.001695 -3.463051 0.500000 0.933000
-0.216505 -0.75 -0.375 -1.712182 -2.001691 -3.010261 0.283500 0.875000
-0.375 -0.75 -0.21651 -2.987925 -2.001697 -1.75086 0.125000 0.716500
-0.43301 -0.75 -4.768372e-08 -3.463056 -2.001686 -0.02232845 0.067000 0.500000
-0.375 -0.75 0.216505 -3.010265 -2.00169 1.712175 0.125000 0.283500
-0.216505 -0.75 0.375 -1.750861 -2.001686 2.987932 0.283500 0.125000
-2.384186e-08 -0.75 0.43301 -0.02234893 -2.001686 3.463056 0.500000 0.067000
0.21651 -0.75 0.375 1.712179 -2.001688 3.010264 0.716500 0.125000
0.375 -0.75 0.216505 2.987934 -2.001682 1.750864 0.875000 0.283500
0.353555 -0.853555 -4.768372e-08 2.826691 -2.82998 0.0321424 0.853600 0.500000
0.30619 -0.853555 -0.17678 2.464048 -2.829991 -1.385504 0.806200 0.676800
0.17678 -0.853555 -0.30619 1.441149 -2.829983 -2.43193 0.676800 0.806200
-2.384186e-08 -0.853555 -0.353555 0.03212659 -2.829978 -2.826693 0.500000 0.853600
-0.176775 -0.853555 -0.30619 -1.385522 -2.829984 -2.464045 0.323200 0.806200
-0.306185 -0.853555 -0.17678 -2.431923 -2.829986 -1.441157 0.193800 0.676800
-0.35355 -0.853555 -4.768372e-08 -2.826688 -2.829983 -0.03210843 0.146400 0.500000
-0.306185 -0.853555 0.176775 -2.464046 -2.829989 1.385512 0.193800 0.323200
-0.176775 -0.853555 0.306185 -1.441156 -2.829989 2.431919 0.323200 0.193800
-2.384186e-08 -0.853555 0.35355 -0.0321243 -2.829984 2.826687 0.500000 0.146400
0.17678 -0.853555 0.306185 1.385494 -2.829996 2.464048 0.676800 0.193800
0.30619 -0.853555 0.176775 2.431927 -2.829987 1.441148 0.806200 0.323200
0.25 -0.933015 -4.768372e-08 1.998106 -3.464963 0.04002984 0.750000 0.500000
0.21651 -0.933015 -0.125 1.750416 -3.464977 -0.964354 0.716500 0.625000
0.125 -0.933015 -0.21651 1.03368 -3.464978 -1.71039 0.625000 0.716500
-2.384186e-08 -0.933015 -0.25 0.04002412 -3.464964 -1.998104 0.500000 0.750000
-0.125 -0.933015 -0.21651 -0.9643832 -3.464974 -1.750406 0.375000 0.716500
-0.216505 -0.933015 -0.125 -1.710405 -3.464962 -1.033708 0.283500 0.625000
-0.25 -0.933015 -4.768372e-08 -1.99811 -3.464961 -0.04001748 0.250000 0.500000
-0.216505 -0.933015 0.125 -1.750433 -3.464956 0.964398 0.283500 0.375000
-0.125 -0.933015 0.216505 -1.033732 -3.464958 1.710398 0.375000 0.283500
-2.384186e-08 -0.933015 0.25 -0.04002324 -3.46496 1.998112 0.500000 0.250000
0.125 -0.933015 0.216505 0.9643692 -3.464959 1.750443 0.625000 0.283500
0.21651 -0.933015 0.125 1.710382 -3.464975 1.033704 0.716500 0.375000
0.12941 -0.982965 -4.768372e-08 1.135234 -3.834636 0.08253112 0.629400 0.500000
0.112075 -0.982965 -0.06470504 1.024409 -3.834641 -0.4961044 0.612100 0.564700
0.06470498 -0.982965 -0.112075 0.6390796 -3.834641 -0.941866 0.564700 0.612100
-2.384186e-08 -0.982965 -0.12941 0.08253104 -3.834636 -1.135234 0.500000 0.629400
-0.06470502 -0.982965 -0.112075 -0.4961192 -3.834642 -1.024398 0.435300 0.612100
-0.11207 -0.982965 -0.06470504 -0.9418832 -3.834635 -0.6390836 0.387900 0.564700
-0.12941 -0.982965 -4.768372e-08 -1.13522 -3.83464 -0.08254704 0.370600 0.500000
-0.11207 -0.982965 0.06470494 -1.024403 -3.834636 0.4961488 0.387900 0.435300
-0.06470502 -0.982965 0.11207 -0.639106 -3.834637 0.9418612 0.435300 0.387900
-2.384186e-08 -0.982965 0.12941 -0.08254704 -3.83464 1.13522 0.500000 0.370600
0.06470498 -0.982965 0.11207 0.4961336 -3.834635 1.024414 0.564700 0.387900
0.112075 -0.982965 0.06470494 0.9418436 -3.834642 0.6391016 0.612100 0.435300
-2.384186e-08 -1 -4.768372e-08 -4.250996e-06 -4 4.225932e-06 0.500000 0.500000
0.5 0.5 -4.768372e-08 3.991432 0.2616729 -0.001424294 0.000000 1.000000
0.433015 0.5 -0.25 3.455973 0.2616625 -1.996943 0.083300 1.000000
0.25 0.5 -0.433015 1.994465 0.2616576 -3.457404 0.166700 1.000000
-2.384186e-08 0.5 -0.5 -0.001429034 0.2616701 -3.991432 0.250000 1.000000
-0.25 0.5 -0.433015 -1.996964 0.261679 -3.45596 0.333300 1.000000
-0.43301 0.5 -0.25 -3.457397 0.2616875 -1.994475 0.416700 1.000000
-0.5 0.5 -4.768372e-08 -3.991429 0.2617086 0.001435758 0.500000 1.000000
-0.43301 0.5 0.25 -3.455956 0.2617117 1.996966 0.583300 1.000000
-0.25 0.5 0.43301 -1.994492 0.2617097 3.457385 0.666700 1.000000
-2.384186e-08 0.5 0.5 0.001431018 0.261712 3.991429 0.750000 1.000000
0.25 0.5 0.43301 1.996944 0.2616956 3.45597 0.833300 1.000000
0.433015 0.5 0.25 3.457393 0.2616795 1.994482 0.916700 1.000000
0.5 -0.5 -4.768372e-08 3.991432 -0.2616697 0.001429116 1.000000 0.000000
0.5 0.5 -4.768372e-08 3.991432 0.2616729 -0.001424294 1.000000 1.000000
0.5 -0.5 -4.768372e-08 3.991432 -0.2616697 0.001429116 1.000000 0.500000
0.433015 -0.5 -0.25 3.457404 -0.2616574 -1.994466 0.933000 0.750000
0.25 -0.5 -0.433015 1.996943 -0.2616626 -3.455974 0.750000 0.933000
-2.384186e-08 -0.5 -0.5 0.001424294 -0.2616733 -3.991432 0.500000 1.000000
-0.25 -0.5 -0.433015 -1.994481 -0.26168 -3.457394 0.250000 0.933000
-0.43301 -0.5 -0.25 -3.455971 -0.2616956 -1.996944 0.067000 0.750000
-0.5 -0.5 -4.768372e-08 -3.991429 -0.2617117 -0.001430977 0.000000 0.500000
-0.43301 -0.5 0.25 -3.457385 -0.2617096 1.994492 0.067000 0.250000
-0.25 -0.5 0.43301 -1.996966 -0.2617118 3.455956 0.250000 0.067000
-2.384186e-08 -0.5 0.5 -0.00143584 -0.2617087 3.991429 0.500000 0.000000
0.25 -0.5 0.43301 1.994476 -0.2616872 3.457396 0.750000 0.067000
0.433015 -0.5 0.25 3.45596 -0.2616784 1.996965 0.933000 0.250000
3 0 1 2 
3 0 2 3 
3 0 3 4 
3 0 4 5 
3 0 5 6 
3 0 6 7 
3 0 7 8 
3 0 8 9 
3 0 9 10 
3 0 10 11 
3 0 11 12 
3 0 12 1 
3 1 13 14 
3 1 14 2 
3 2 14 15 
3 2 15 3 
3 3 15 16 
3 3 16 4 
3 4 16 17 
3 4 17 5 
3 5 17 18 
3 5 18 6 
3 6 18 19 
3 6 19 7 
3 7 19 20 
3 7 20 8 
3 8 20 21 
3 8 21 9 
3 9 21 22 
3 9 22 10 
3 10 22 23 
3 10 23 11 
3 11 23 24 
3 11 24 12 
3 12 24 13 
3 12 13 1 
3 13 25 26 
3 13 26 14 
3 14 26 27 
3 14 27 15 
3 15 27 28 
3 15 28 16 
3 16 28 29 
3 16 29 17 
3 17 29 30 
3 17 30 18 
3 18 30 31 
3 18 31 19 
3 19 31 32 
3 19 32 20 
3 20 32 33 
3 20 33 21 
3 21 33 34 
3 21 34 22 
3 22 34 35 
3 22 35 23 
3 23 35 36 
3 23 36 24 
3 24 36 25 
3 24 25 13 
3 25 37 38 
3 25 38 26 
3 26 38 39 
3 26 39 27 
3 27 39 40 
3 27 40 28 
3 28 40 41 
3 28 41 29 
3 29 41 42 
3 29 42 30 
3 30 42 43 
3 30 43 31 
3 31 43 44 
3 31 44 32 
3 32 44 45 
3 32 45 33 
3 33 45 46 
3 33 46 34 
3 34 46 47 
3 34 47 35 
3 35 47 48 
3 35 48 36 
3 36 48 37 
3 36 37 25 
3 37 49 50 
3 37 50 38 
3 38 50 51 
3 38 51 39 
3 39 51 52 
3 39 52 40 
3 40 52 53 
3 40 53 41 
3 41 53 54 
3 41 54 42 
3 42 54 55 
3 42 55 43 
3 43 55 56 
3 43 56 44 
3 44 56 57 
3 44 57 45 
3 45 57 58 
3 45 58 46 
3 46 58 59 
3 46 59 47 
3 47 59 60 
3 47 60 48 
3 48 60 49 
3 48 49 37 
3 49 61 62 
3 49 62 50 
3 50 62 63 
3 50 63 51 
3 51 63 64 
3 51 64 52 
3 52 64 65 
3 52 65 53 
3 53 65 66 
3 53 66 54 
3 54 66 67 
3 54 67 55 
3 55 67 68 
3 55 68 56 
3 56 68 69 
3 56 69 57 
3 57 69 70 
3 57 70 58 
3 58 70 71 
3 58 71 59 
3 59 71 72 
3 59 72 60 
3 60 72 61 
3 60 61 49 
3 146 73 74 
3 146 74 147 
3 147 74 75 
3 147 75 148 
3 148 75 76 
3 148 76 149 
3 149 76 77 
3 149 77 150 
3 150 77 78 
3 150 78 151 
3 151 78 79 
3 151 79 152 
3 152 79 80 
3 152 80 153 
3 153 80 81 
3 153 81 154 
3 154 81 82 
3 154 82 155 
3 155 82 83 
3 155 83 156 
3 156 83 84 
3 156 84 157 
3 157 84 158 
3 157 158 159 
3 160 85 86 
3 160 86 161 
3 161 86 87 
3 161 87 162 
3 162 87 88 
3 162 88 163 
3 163 88 89 
3 163 89 164 
3 164 89 90 
3 164 90 165 
3 165 90 91 
3 165 91 166 
3 166 91 92 
3 166 92 167 
3 167 92 93 
3 167 93 168 
3 168 93 94 
3 168 94 169 
3 169 94 95 
3 169 95 170 
3 170 95 96 
3 170 96 171 
3 171 96 85 
3 171 85 160 
3 85 97 98 
3 85 98 86 
3 86 98 99 
3 86 99 87 
3 87 99 100 
3 87 100 88 
3 88 100 101 
3 88 101 89 
3 89 101 102 
3 89 102 90 
3 90 102 103 
3 90 103 91 
3 91 103 104 
3 91 104 92 
3 92 104 105 
3 92 105 93 
3 93 105 106 
3 93 106 94 
3 94 106 107 
3 94 107 95 
3 95 107 108 
3 95 108 96 
3 96 108 97 
3 96 97 85 
3 97 109 110 
3 97 110 98 
3 98 110 111 
3 98 111 99 
3 99 111 112 
3 99 112 100 
3 100 112 113 
3 100 113 101 
3 101 113 114 
3 101 114 102 
3 102 114 115 
3 102 115 103 
3 103 115 116 
3 103 116 104 
3 104 116 117 
3 104 117 105 
3 105 117 118 
3 105 118 106 
3 106 118 119 
3 106 119 107 
3 107 119 120 
3 107 120 108 
3 108 120 109 
3 108 109 97 
3 109 121 122 
3 109 122 110 
3 110 122 123 
3 110 123 111 
3 111 123 124 
3 111 124 112 
3 112 124 125 
3 112 125 113 
3 113 125 126 
3 113 126 114 
3 114 126 127 
3 114 127 115 
3 115 127 128 
3 115 128 116 
3 116 128 129 
3 116 129 117 
3 117 129 130 
3 117 130 118 
3 118 130 131 
3 118 131 119 
3 119 131 132 
3 119 132 120 
3 120 132 121 
3 120 121 109 
3 121 133 134 
3 121 134 122 
3 122 134 135 
3 122 135 123 
3 123 135 136 
3 123 136 124 
3 124 136 137 
3 124 137 125 
3 125 137 138 
3 125 138 126 
3 126 138 139 
3 126 139 127 
3 127 139 140 
3 127 140 128 
3 128 140 141 
3 128 141 129 
3 129 141 142 
3 129 142 130 
3 130 142 143 
3 130 143 131 
3 131 143 144 
3 131 144 132 
3 132 144 133 
3 132 133 121 
3 133 145 134 
3 134 145 135 
3 135 145 136 
3 136 145 137 
3 137 145 138 
3 138 145 139 
3 139 145 140 
3 140 145 141 
3 141 145 142 
3 142 145 143 
3 143 145 144 
3 144 145 133 
