ply
format ascii 1.0
comment VCGLIB generated
element vertex 21
property float x
property float y
property float z
property float nx
property float ny
property float nz
property float texture_u
property float texture_v
element face 4
property list uchar int vertex_indices
end_header
0 1 0 0 0 0 0.000000 1.000000
2 1 0 0 0 0 1.000000 1.000000
0 -1 0 0 0 0 0.000000 0.000000
2 -1 0 0 0 0 1.000000 0.000000
0 1 2 0 0 0 0.000000 1.000000
2 1 2 0 0 0 1.000000 1.000000
0 1 0 0 0 0 0.000000 0.000000
2 1 0 0 0 0 1.000000 0.000000
2 1 2 0 0 0 0.000000 1.000000
2 -1 2 0 0 0 1.000000 1.000000
2 -1 0 0 0 0 0.000000 0.000000
2 1 0 0 0 0 1.000000 0.000000
2 -1 2 0 0 0 0.000000 1.000000
0 -1 2 0 0 0 1.000000 1.000000
2 -1 0 0 0 0 0.000000 0.000000
0 -1 0 0 0 0 1.000000 0.000000
0 -1 2 0 0 0 0.000000 1.000000
0 1 2 0 0 0 1.000000 1.000000
0 1 0 0 0 0 0.000000 0.000000
0 -1 0 0 0 0 1.000000 0.000000
0 0 1 0 0 0 1.000000 0.500000
3 20 17 16 
3 20 16 19 
3 20 19 18 
3 20 18 17 
