ply
format ascii 1.0
comment VCGLIB generated
element vertex 81
property float x
property float y
property float z
property float nx
property float ny
property float nz
property float texture_u
property float texture_v
element face 128
property list uchar int vertex_indices
end_header
-3 0 1 0 1.570796 0 0.000000 1.000000
3 0 1 0 1.570796 0 1.000000 1.000000
-3 0 7 0 1.570796 0 0.000000 0.000000
3 0 7 0 1.570796 0 1.000000 0.000000
0 0 1 0 3.141593 0 0.500000 1.000000
0 0 4 0 6.283185 0 0.500000 0.500000
-3 0 4 0 3.141593 0 0.000000 0.500000
3 0 4 0 3.141593 0 1.000000 0.500000
0 0 7 0 3.141593 0 0.500000 0.000000
0 0 2.5 0 6.283185 0 0.500000 0.750000
-1.5 0 4 0 6.283185 0 0.250000 0.500000
-1.5 0 2.5 0 6.283185 0 0.250000 0.750000
1.5 0 4 0 6.283185 0 0.750000 0.500000
1.5 0 5.5 0 6.283185 0 0.750000 0.250000
0 0 5.5 0 6.283185 0 0.500000 0.250000
-1.5 0 1 0 3.141593 0 0.250000 1.000000
-3 0 2.5 0 3.141593 0 0.000000 0.750000
1.5 0 1 0 3.141593 0 0.750000 1.000000
1.5 0 2.5 0 6.283185 0 0.750000 0.750000
-1.5 0 5.5 0 6.283185 0 0.250000 0.250000
-3 0 5.5 0 3.141593 0 0.000000 0.250000
-1.5 0 7 0 3.141593 0 0.250000 0.000000
3 0 2.5 0 3.141593 0 1.000000 0.750000
3 0 5.5 0 3.141593 0 1.000000 0.250000
1.5 0 7 0 3.141593 0 0.750000 0.000000
-0.75 0 3.25 0 6.283185 0 0.375000 0.625000
-0.75 0 2.5 0 6.283185 0 0.375000 0.750000
-1.5 0 3.25 0 6.283185 0 0.250000 0.625000
1.5 0 4.75 0 6.283185 0 0.750000 0.375000
0.75 0 4.75 0 6.283185 0 0.625000 0.375000
0.75 0 5.5 0 6.283185 0 0.625000 0.250000
-1.5 0 1.75 0 6.283185 0 0.250000 0.875000
-2.25 0 1.75 0 6.283185 0 0.125000 0.875000
-2.25 0 2.5 0 6.283185 0 0.125000 0.750000
1.5 0 1.75 0 6.283185 0 0.750000 0.875000
0.75 0 1.75 0 6.283185 0 0.625000 0.875000
0.75 0 2.5 0 6.283185 0 0.625000 0.750000
-1.5 0 4.75 0 6.283185 0 0.250000 0.375000
-2.25 0 4.75 0 6.283185 0 0.125000 0.375000
-2.25 0 5.5 0 6.283185 0 0.125000 0.250000
-0.75 0 5.5 0 6.283185 0 0.375000 0.250000
-1.5 0 6.25 0 6.283185 0 0.250000 0.125000
-0.75 0 6.25 0 6.283185 0 0.375000 0.125000
2.25 0 2.5 0 6.283185 0 0.875000 0.750000
1.5 0 3.25 0 6.283185 0 0.750000 0.625000
2.25 0 3.25 0 6.283185 0 0.875000 0.625000
2.25 0 5.5 0 6.283185 0 0.875000 0.250000
1.5 0 6.25 0 6.283185 0 0.750000 0.125000
2.25 0 6.25 0 6.283185 0 0.875000 0.125000
0 0 1.75 0 6.283185 0 0.500000 0.875000
-0.75 0 1.75 0 6.283185 0 0.375000 0.875000
0 0 3.25 0 6.283185 0 0.500000 0.625000
-0.75 0 4 0 6.283185 0 0.375000 0.500000
-2.25 0 3.25 0 6.283185 0 0.125000 0.625000
-2.25 0 4 0 6.283185 0 0.125000 0.500000
0.75 0 4 0 6.283185 0 0.625000 0.500000
0 0 4.75 0 6.283185 0 0.500000 0.375000
2.25 0 4 0 6.283185 0 0.875000 0.500000
2.25 0 4.75 0 6.283185 0 0.875000 0.375000
0 0 6.25 0 6.283185 0 0.500000 0.125000
0.75 0 6.25 0 6.283185 0 0.625000 0.125000
-2.25 0 1 0 3.141593 0 0.125000 1.000000
-3 0 1.75 0 3.141593 0 0.000000 0.875000
-0.75 0 1 0 3.141593 0 0.375000 1.000000
-3 0 3.25 0 3.141593 0 0.000000 0.625000
0.75 0 1 0 3.141593 0 0.625000 1.000000
2.25 0 1 0 3.141593 0 0.875000 1.000000
2.25 0 1.75 0 6.283185 0 0.875000 0.875000
0.75 0 3.25 0 6.283185 0 0.625000 0.625000
-3 0 4.75 0 3.141593 0 0.000000 0.375000
-0.75 0 4.75 0 6.283185 0 0.375000 0.375000
-3 0 6.25 0 3.141593 0 0.000000 0.125000
-2.25 0 6.25 0 6.283185 0 0.125000 0.125000
-2.25 0 7 0 3.141593 0 0.125000 0.000000
-0.75 0 7 0 3.141593 0 0.375000 0.000000
3 0 1.75 0 3.141593 0 1.000000 0.875000
3 0 3.25 0 3.141593 0 1.000000 0.625000
0.75 0 7 0 3.141593 0 0.625000 0.000000
3 0 4.75 0 3.141593 0 1.000000 0.375000
2.25 0 7 0 3.141593 0 0.875000 0.000000
3 0 6.25 0 3.141593 0 1.000000 0.125000
3 25 26 27 
3 28 29 30 
3 31 32 33 
3 34 35 36 
3 37 38 39 
3 40 41 42 
3 43 44 45 
3 46 47 48 
3 49 50 26 
3 51 25 52 
3 27 53 54 
3 55 56 29 
3 57 28 58 
3 30 59 60 
3 61 62 32 
3 63 31 50 
3 33 64 53 
3 65 49 35 
3 66 34 67 
3 36 51 68 
3 54 69 38 
3 52 37 70 
3 39 71 72 
3 72 73 41 
3 70 40 56 
3 42 74 59 
3 68 55 44 
3 67 43 75 
3 45 57 76 
3 60 77 47 
3 58 46 78 
3 48 79 80 
3 10 25 27 
3 25 9 26 
3 27 26 11 
3 13 28 30 
3 28 12 29 
3 30 29 14 
3 11 31 33 
3 31 15 32 
3 33 32 16 
3 18 34 36 
3 34 17 35 
3 36 35 9 
3 19 37 39 
3 37 10 38 
3 39 38 20 
3 14 40 42 
3 40 19 41 
3 42 41 21 
3 22 43 45 
3 43 18 44 
3 45 44 12 
3 23 46 48 
3 46 13 47 
3 48 47 24 
3 9 49 26 
3 49 4 50 
3 26 50 11 
3 5 51 52 
3 51 9 25 
3 52 25 10 
3 10 27 54 
3 27 11 53 
3 54 53 6 
3 12 55 29 
3 55 5 56 
3 29 56 14 
3 7 57 58 
3 57 12 28 
3 58 28 13 
3 13 30 60 
3 30 14 59 
3 60 59 8 
3 15 61 32 
3 61 0 62 
3 32 62 16 
3 4 63 50 
3 63 15 31 
3 50 31 11 
3 11 33 53 
3 33 16 64 
3 53 64 6 
3 17 65 35 
3 65 4 49 
3 35 49 9 
3 1 66 67 
3 66 17 34 
3 67 34 18 
3 18 36 68 
3 36 9 51 
3 68 51 5 
3 10 54 38 
3 54 6 69 
3 38 69 20 
3 5 52 70 
3 52 10 37 
3 70 37 19 
3 19 39 72 
3 39 20 71 
3 72 71 2 
3 19 72 41 
3 72 2 73 
3 41 73 21 
3 5 70 56 
3 70 19 40 
3 56 40 14 
3 14 42 59 
3 42 21 74 
3 59 74 8 
3 18 68 44 
3 68 5 55 
3 44 55 12 
3 1 67 75 
3 67 18 43 
3 75 43 22 
3 22 45 76 
3 45 12 57 
3 76 57 7 
3 13 60 47 
3 60 8 77 
3 47 77 24 
3 7 58 78 
3 58 13 46 
3 78 46 23 
3 23 48 80 
3 48 24 79 
3 80 79 3 
