ply
format ascii 1.0
comment VCGLIB generated
element vertex 289
property float x
property float y
property float z
property float nx
property float ny
property float nz
property float texture_u
property float texture_v
element face 512
property list uchar int vertex_indices
end_header
-3 0 1 0 1.570796 0 0.000000 1.000000
3 0 1 0 1.570796 0 1.000000 1.000000
-3 0 7 0 1.570796 0 0.000000 0.000000
3 0 7 0 1.570796 0 1.000000 0.000000
0 0 1 0 3.141593 0 0.500000 1.000000
0 0 4 0 6.283185 0 0.500000 0.500000
-3 0 4 0 3.141593 0 0.000000 0.500000
3 0 4 0 3.141593 0 1.000000 0.500000
0 0 7 0 3.141593 0 0.500000 0.000000
0 0 2.5 0 6.283185 0 0.500000 0.750000
-1.5 0 4 0 6.283185 0 0.250000 0.500000
-1.5 0 2.5 0 6.283185 0 0.250000 0.750000
1.5 0 4 0 6.283185 0 0.750000 0.500000
1.5 0 5.5 0 6.283185 0 0.750000 0.250000
0 0 5.5 0 6.283185 0 0.500000 0.250000
-1.5 0 1 0 3.141593 0 0.250000 1.000000
-3 0 2.5 0 3.141593 0 0.000000 0.750000
1.5 0 1 0 3.141593 0 0.750000 1.000000
1.5 0 2.5 0 6.283185 0 0.750000 0.750000
-1.5 0 5.5 0 6.283185 0 0.250000 0.250000
-3 0 5.5 0 3.141593 0 0.000000 0.250000
-1.5 0 7 0 3.141593 0 0.250000 0.000000
3 0 2.5 0 3.141593 0 1.000000 0.750000
3 0 5.5 0 3.141593 0 1.000000 0.250000
1.5 0 7 0 3.141593 0 0.750000 0.000000
-0.75 0 3.25 0 6.283185 0 0.375000 0.625000
-0.75 0 2.5 0 6.283185 0 0.375000 0.750000
-1.5 0 3.25 0 6.283185 0 0.250000 0.625000
1.5 0 4.75 0 6.283185 0 0.750000 0.375000
0.75 0 4.75 0 6.283185 0 0.625000 0.375000
0.75 0 5.5 0 6.283185 0 0.625000 0.250000
-1.5 0 1.75 0 6.283185 0 0.250000 0.875000
-2.25 0 1.75 0 6.283185 0 0.125000 0.875000
-2.25 0 2.5 0 6.283185 0 0.125000 0.750000
1.5 0 1.75 0 6.283185 0 0.750000 0.875000
0.75 0 1.75 0 6.283185 0 0.625000 0.875000
0.75 0 2.5 0 6.283185 0 0.625000 0.750000
-1.5 0 4.75 0 6.283185 0 0.250000 0.375000
-2.25 0 4.75 0 6.283185 0 0.125000 0.375000
-2.25 0 5.5 0 6.283185 0 0.125000 0.250000
-0.75 0 5.5 0 6.283185 0 0.375000 0.250000
-1.5 0 6.25 0 6.283185 0 0.250000 0.125000
-0.75 0 6.25 0 6.283185 0 0.375000 0.125000
2.25 0 2.5 0 6.283185 0 0.875000 0.750000
1.5 0 3.25 0 6.283185 0 0.750000 0.625000
2.25 0 3.25 0 6.283185 0 0.875000 0.625000
2.25 0 5.5 0 6.283185 0 0.875000 0.250000
1.5 0 6.25 0 6.283185 0 0.750000 0.125000
2.25 0 6.25 0 6.283185 0 0.875000 0.125000
0 0 1.75 0 6.283185 0 0.500000 0.875000
-0.75 0 1.75 0 6.283185 0 0.375000 0.875000
0 0 3.25 0 6.283185 0 0.500000 0.625000
-0.75 0 4 0 6.283185 0 0.375000 0.500000
-2.25 0 3.25 0 6.283185 0 0.125000 0.625000
-2.25 0 4 0 6.283185 0 0.125000 0.500000
0.75 0 4 0 6.283185 0 0.625000 0.500000
0 0 4.75 0 6.283185 0 0.500000 0.375000
2.25 0 4 0 6.283185 0 0.875000 0.500000
2.25 0 4.75 0 6.283185 0 0.875000 0.375000
0 0 6.25 0 6.283185 0 0.500000 0.125000
0.75 0 6.25 0 6.283185 0 0.625000 0.125000
-2.25 0 1 0 3.141593 0 0.125000 1.000000
-3 0 1.75 0 3.141593 0 0.000000 0.875000
-0.75 0 1 0 3.141593 0 0.375000 1.000000
-3 0 3.25 0 3.141593 0 0.000000 0.625000
0.75 0 1 0 3.141593 0 0.625000 1.000000
2.25 0 1 0 3.141593 0 0.875000 1.000000
2.25 0 1.75 0 6.283185 0 0.875000 0.875000
0.75 0 3.25 0 6.283185 0 0.625000 0.625000
-3 0 4.75 0 3.141593 0 0.000000 0.375000
-0.75 0 4.75 0 6.283185 0 0.375000 0.375000
-3 0 6.25 0 3.141593 0 0.000000 0.125000
-2.25 0 6.25 0 6.283185 0 0.125000 0.125000
-2.25 0 7 0 3.141593 0 0.125000 0.000000
-0.75 0 7 0 3.141593 0 0.375000 0.000000
3 0 1.75 0 3.141593 0 1.000000 0.875000
3 0 3.25 0 3.141593 0 1.000000 0.625000
0.75 0 7 0 3.141593 0 0.625000 0.000000
3 0 4.75 0 3.141593 0 1.000000 0.375000
2.25 0 7 0 3.141593 0 0.875000 0.000000
3 0 6.25 0 3.141593 0 1.000000 0.125000
-0.75 0 2.875 0 6.283185 0 0.375000 0.687500
-1.125 0 2.875 0 6.283185 0 0.312500 0.687500
-1.125 0 3.25 0 6.283185 0 0.312500 0.625000
1.125 0 4.75 0 6.283185 0 0.687500 0.375000
0.75 0 5.125 0 6.283185 0 0.625000 0.312500
1.125 0 5.125 0 6.283185 0 0.687500 0.312500
-1.875 0 1.75 0 6.283185 0 0.187500 0.875000
-2.25 0 2.125 0 6.283185 0 0.125000 0.812500
-1.875 0 2.125 0 6.283185 0 0.187500 0.812500
1.125 0 1.75 0 6.283185 0 0.687500 0.875000
0.75 0 2.125 0 6.283185 0 0.625000 0.812500
1.125 0 2.125 0 6.283185 0 0.687500 0.812500
-1.875 0 4.75 0 6.283185 0 0.187500 0.375000
-2.25 0 5.125 0 6.283185 0 0.125000 0.312500
-1.875 0 5.125 0 6.283185 0 0.187500 0.312500
-1.125 0 5.875 0 6.283185 0 0.312500 0.187500
-1.125 0 6.25 0 6.283185 0 0.312500 0.125000
-0.75 0 5.875 0 6.283185 0 0.375000 0.187500
1.875 0 2.875 0 6.283185 0 0.812500 0.687500
1.875 0 3.25 0 6.283185 0 0.812500 0.625000
2.25 0 2.875 0 6.283185 0 0.875000 0.687500
1.875 0 5.875 0 6.283185 0 0.812500 0.187500
1.875 0 6.25 0 6.283185 0 0.812500 0.125000
2.25 0 5.875 0 6.283185 0 0.875000 0.187500
-0.375 0 1.75 0 6.283185 0 0.437500 0.875000
-0.75 0 2.125 0 6.283185 0 0.375000 0.812500
-0.375 0 2.125 0 6.283185 0 0.437500 0.812500
-0.375 0 3.25 0 6.283185 0 0.437500 0.625000
-0.75 0 3.625 0 6.283185 0 0.375000 0.562500
-0.375 0 3.625 0 6.283185 0 0.437500 0.562500
-1.875 0 3.25 0 6.283185 0 0.187500 0.625000
-2.25 0 3.625 0 6.283185 0 0.125000 0.562500
-1.875 0 3.625 0 6.283185 0 0.187500 0.562500
0.375 0 4.375 0 6.283185 0 0.562500 0.437500
0.375 0 4.75 0 6.283185 0 0.562500 0.375000
0.75 0 4.375 0 6.283185 0 0.625000 0.437500
1.875 0 4.375 0 6.283185 0 0.812500 0.437500
1.875 0 4.75 0 6.283185 0 0.812500 0.375000
2.25 0 4.375 0 6.283185 0 0.875000 0.437500
0.375 0 5.875 0 6.283185 0 0.562500 0.187500
0.375 0 6.25 0 6.283185 0 0.562500 0.125000
0.75 0 5.875 0 6.283185 0 0.625000 0.187500
-2.625 0 1.375 0 6.283185 0 0.062500 0.937500
-2.625 0 1.75 0 6.283185 0 0.062500 0.875000
-2.25 0 1.375 0 6.283185 0 0.125000 0.937500
-1.125 0 1.375 0 6.283185 0 0.312500 0.937500
-1.125 0 1.75 0 6.283185 0 0.312500 0.875000
-0.75 0 1.375 0 6.283185 0 0.375000 0.937500
-2.625 0 2.875 0 6.283185 0 0.062500 0.687500
-2.625 0 3.25 0 6.283185 0 0.062500 0.625000
-2.25 0 2.875 0 6.283185 0 0.125000 0.687500
0.375 0 1.375 0 6.283185 0 0.562500 0.937500
0.375 0 1.75 0 6.283185 0 0.562500 0.875000
0.75 0 1.375 0 6.283185 0 0.625000 0.937500
1.875 0 1.375 0 6.283185 0 0.812500 0.937500
1.875 0 1.75 0 6.283185 0 0.812500 0.875000
2.25 0 1.375 0 6.283185 0 0.875000 0.937500
0.375 0 2.875 0 6.283185 0 0.562500 0.687500
0.375 0 3.25 0 6.283185 0 0.562500 0.625000
0.75 0 2.875 0 6.283185 0 0.625000 0.687500
-2.625 0 4.375 0 6.283185 0 0.062500 0.437500
-2.625 0 4.75 0 6.283185 0 0.062500 0.375000
-2.25 0 4.375 0 6.283185 0 0.125000 0.437500
-1.125 0 4.375 0 6.283185 0 0.312500 0.437500
-1.125 0 4.75 0 6.283185 0 0.312500 0.375000
-0.75 0 4.375 0 6.283185 0 0.375000 0.437500
-2.625 0 5.875 0 6.283185 0 0.062500 0.187500
-2.625 0 6.25 0 6.283185 0 0.062500 0.125000
-2.25 0 5.875 0 6.283185 0 0.125000 0.187500
-2.25 0 6.625 0 6.283185 0 0.125000 0.062500
-1.875 0 6.625 0 6.283185 0 0.187500 0.062500
-1.875 0 6.25 0 6.283185 0 0.187500 0.125000
-0.75 0 5.125 0 6.283185 0 0.375000 0.312500
-0.375 0 5.125 0 6.283185 0 0.437500 0.312500
-0.375 0 4.75 0 6.283185 0 0.437500 0.375000
-0.75 0 6.625 0 6.283185 0 0.375000 0.062500
-0.375 0 6.625 0 6.283185 0 0.437500 0.062500
-0.375 0 6.25 0 6.283185 0 0.437500 0.125000
0.75 0 3.625 0 6.283185 0 0.625000 0.562500
1.125 0 3.625 0 6.283185 0 0.687500 0.562500
1.125 0 3.25 0 6.283185 0 0.687500 0.625000
2.25 0 2.125 0 6.283185 0 0.875000 0.812500
2.625 0 2.125 0 6.283185 0 0.937500 0.812500
2.625 0 1.75 0 6.283185 0 0.937500 0.875000
2.25 0 3.625 0 6.283185 0 0.875000 0.562500
2.625 0 3.625 0 6.283185 0 0.937500 0.562500
2.625 0 3.25 0 6.283185 0 0.937500 0.625000
0.75 0 6.625 0 6.283185 0 0.625000 0.062500
1.125 0 6.625 0 6.283185 0 0.687500 0.062500
1.125 0 6.25 0 6.283185 0 0.687500 0.125000
2.25 0 5.125 0 6.283185 0 0.875000 0.312500
2.625 0 5.125 0 6.283185 0 0.937500 0.312500
2.625 0 4.75 0 6.283185 0 0.937500 0.375000
2.25 0 6.625 0 6.283185 0 0.875000 0.062500
2.625 0 6.625 0 6.283185 0 0.937500 0.062500
2.625 0 6.25 0 6.283185 0 0.937500 0.125000
-1.125 0 3.625 0 6.283185 0 0.312500 0.562500
-1.5 0 3.625 0 6.283185 0 0.250000 0.562500
-0.375 0 2.875 0 6.283185 0 0.437500 0.687500
-0.375 0 2.5 0 6.283185 0 0.437500 0.750000
-1.125 0 2.5 0 6.283185 0 0.312500 0.750000
-1.5 0 2.875 0 6.283185 0 0.250000 0.687500
1.5 0 5.125 0 6.283185 0 0.750000 0.312500
1.125 0 5.5 0 6.283185 0 0.687500 0.250000
1.5 0 4.375 0 6.283185 0 0.750000 0.437500
1.125 0 4.375 0 6.283185 0 0.687500 0.437500
0.375 0 5.125 0 6.283185 0 0.562500 0.312500
0.375 0 5.5 0 6.283185 0 0.562500 0.250000
-1.5 0 2.125 0 6.283185 0 0.250000 0.812500
-1.875 0 2.5 0 6.283185 0 0.187500 0.750000
-1.5 0 1.375 0 6.283185 0 0.250000 0.937500
-1.875 0 1.375 0 6.283185 0 0.187500 0.937500
-2.625 0 2.125 0 6.283185 0 0.062500 0.812500
-2.625 0 2.5 0 6.283185 0 0.062500 0.750000
1.5 0 2.125 0 6.283185 0 0.750000 0.812500
1.125 0 2.5 0 6.283185 0 0.687500 0.750000
1.5 0 1.375 0 6.283185 0 0.750000 0.937500
1.125 0 1.375 0 6.283185 0 0.687500 0.937500
0.375 0 2.125 0 6.283185 0 0.562500 0.812500
0.375 0 2.5 0 6.283185 0 0.562500 0.750000
-1.5 0 5.125 0 6.283185 0 0.250000 0.312500
-1.875 0 5.5 0 6.283185 0 0.187500 0.250000
-1.5 0 4.375 0 6.283185 0 0.250000 0.437500
-1.875 0 4.375 0 6.283185 0 0.187500 0.437500
-2.625 0 5.125 0 6.283185 0 0.062500 0.312500
-2.625 0 5.5 0 6.283185 0 0.062500 0.250000
-0.375 0 5.5 0 6.283185 0 0.437500 0.250000
-0.375 0 5.875 0 6.283185 0 0.437500 0.187500
-1.125 0 5.5 0 6.283185 0 0.312500 0.250000
-1.5 0 5.875 0 6.283185 0 0.250000 0.187500
-1.5 0 6.625 0 6.283185 0 0.250000 0.062500
-1.125 0 6.625 0 6.283185 0 0.312500 0.062500
2.625 0 2.5 0 6.283185 0 0.937500 0.750000
2.625 0 2.875 0 6.283185 0 0.937500 0.687500
1.875 0 2.5 0 6.283185 0 0.812500 0.750000
1.5 0 2.875 0 6.283185 0 0.750000 0.687500
1.5 0 3.625 0 6.283185 0 0.750000 0.562500
1.875 0 3.625 0 6.283185 0 0.812500 0.562500
2.625 0 5.5 0 6.283185 0 0.937500 0.250000
2.625 0 5.875 0 6.283185 0 0.937500 0.187500
1.875 0 5.5 0 6.283185 0 0.812500 0.250000
1.5 0 5.875 0 6.283185 0 0.750000 0.187500
1.5 0 6.625 0 6.283185 0 0.750000 0.062500
1.875 0 6.625 0 6.283185 0 0.812500 0.062500
0 0 2.125 0 6.283185 0 0.500000 0.812500
0 0 1.375 0 6.283185 0 0.500000 0.937500
-0.375 0 1.375 0 6.283185 0 0.437500 0.937500
-1.125 0 2.125 0 6.283185 0 0.312500 0.812500
0 0 3.625 0 6.283185 0 0.500000 0.562500
-0.375 0 4 0 6.283185 0 0.437500 0.500000
0 0 2.875 0 6.283185 0 0.500000 0.687500
-1.125 0 4 0 6.283185 0 0.312500 0.500000
-1.875 0 4 0 6.283185 0 0.187500 0.500000
-1.875 0 2.875 0 6.283185 0 0.187500 0.687500
-2.625 0 3.625 0 6.283185 0 0.062500 0.562500
-2.625 0 4 0 6.283185 0 0.062500 0.500000
1.125 0 4 0 6.283185 0 0.687500 0.500000
0.375 0 4 0 6.283185 0 0.562500 0.500000
0 0 4.375 0 6.283185 0 0.500000 0.437500
0 0 5.125 0 6.283185 0 0.500000 0.312500
2.625 0 4 0 6.283185 0 0.937500 0.500000
2.625 0 4.375 0 6.283185 0 0.937500 0.437500
1.875 0 4 0 6.283185 0 0.812500 0.500000
1.875 0 5.125 0 6.283185 0 0.812500 0.312500
1.125 0 5.875 0 6.283185 0 0.687500 0.187500
0 0 5.875 0 6.283185 0 0.500000 0.187500
0 0 6.625 0 6.283185 0 0.500000 0.062500
0.375 0 6.625 0 6.283185 0 0.562500 0.062500
-1.875 0 1 0 3.141593 0 0.187500 1.000000
-2.625 0 1 0 3.141593 0 0.062500 1.000000
-3 0 1.375 0 3.141593 0 0.000000 0.937500
-3 0 2.125 0 3.141593 0 0.000000 0.812500
-0.375 0 1 0 3.141593 0 0.437500 1.000000
-1.125 0 1 0 3.141593 0 0.312500 1.000000
-3 0 2.875 0 3.141593 0 0.000000 0.687500
-3 0 3.625 0 3.141593 0 0.000000 0.562500
1.125 0 1 0 3.141593 0 0.687500 1.000000
0.375 0 1 0 3.141593 0 0.562500 1.000000
2.625 0 1 0 3.141593 0 0.937500 1.000000
2.625 0 1.375 0 6.283185 0 0.937500 0.937500
1.875 0 1 0 3.141593 0 0.812500 1.000000
1.875 0 2.125 0 6.283185 0 0.812500 0.812500
1.125 0 2.875 0 6.283185 0 0.687500 0.687500
0.375 0 3.625 0 6.283185 0 0.562500 0.562500
-3 0 4.375 0 3.141593 0 0.000000 0.437500
-3 0 5.125 0 3.141593 0 0.000000 0.312500
-0.375 0 4.375 0 6.283185 0 0.437500 0.437500
-1.125 0 5.125 0 6.283185 0 0.312500 0.312500
-1.875 0 5.875 0 6.283185 0 0.187500 0.187500
-3 0 5.875 0 3.141593 0 0.000000 0.187500
-3 0 6.625 0 3.141593 0 0.000000 0.062500
-2.625 0 6.625 0 6.283185 0 0.062500 0.062500
-2.625 0 7 0 3.141593 0 0.062500 0.000000
-1.875 0 7 0 3.141593 0 0.187500 0.000000
-1.125 0 7 0 3.141593 0 0.312500 0.000000
-0.375 0 7 0 3.141593 0 0.437500 0.000000
3 0 1.375 0 3.141593 0 1.000000 0.937500
3 0 2.125 0 3.141593 0 1.000000 0.812500
3 0 2.875 0 3.141593 0 1.000000 0.687500
3 0 3.625 0 3.141593 0 1.000000 0.562500
0.375 0 7 0 3.141593 0 0.562500 0.000000
1.125 0 7 0 3.141593 0 0.687500 0.000000
3 0 4.375 0 3.141593 0 1.000000 0.437500
3 0 5.125 0 3.141593 0 1.000000 0.312500
3 0 5.875 0 3.141593 0 1.000000 0.187500
1.875 0 7 0 3.141593 0 0.812500 0.000000
2.625 0 7 0 3.141593 0 0.937500 0.000000
3 0 6.625 0 3.141593 0 1.000000 0.062500
3 81 82 83 
3 84 85 86 
3 87 88 89 
3 90 91 92 
3 93 94 95 
3 96 97 98 
3 99 100 101 
3 102 103 104 
3 105 106 107 
3 108 109 110 
3 111 112 113 
3 114 115 116 
3 117 118 119 
3 120 121 122 
3 123 124 125 
3 126 127 128 
3 129 130 131 
3 132 133 134 
3 135 136 137 
3 138 139 140 
3 141 142 143 
3 144 145 146 
3 147 148 149 
3 150 151 152 
3 153 154 155 
3 156 157 158 
3 159 160 161 
3 162 163 164 
3 165 166 167 
3 168 169 170 
3 171 172 173 
3 174 175 176 
3 177 83 178 
3 179 180 81 
3 82 181 182 
3 183 86 184 
3 185 186 84 
3 85 187 188 
3 189 89 190 
3 191 192 87 
3 88 193 194 
3 195 92 196 
3 197 198 90 
3 91 199 200 
3 201 95 202 
3 203 204 93 
3 94 205 206 
3 207 98 208 
3 209 210 96 
3 97 211 212 
3 213 101 214 
3 215 216 99 
3 100 217 218 
3 219 104 220 
3 221 222 102 
3 103 223 224 
3 225 107 180 
3 226 227 105 
3 106 228 181 
3 229 110 230 
3 231 179 108 
3 109 177 232 
3 178 113 233 
3 182 234 111 
3 112 235 236 
3 237 116 186 
3 238 239 114 
3 115 240 187 
3 241 119 242 
3 243 185 117 
3 118 183 244 
3 184 122 245 
3 188 246 120 
3 121 247 248 
3 249 125 192 
3 250 251 123 
3 124 252 193 
3 253 128 227 
3 254 191 126 
3 127 189 228 
3 190 131 234 
3 194 255 129 
3 130 256 235 
3 257 134 198 
3 258 226 132 
3 133 225 199 
3 259 137 260 
3 261 197 135 
3 136 195 262 
3 196 140 263 
3 200 231 138 
3 139 229 264 
3 233 143 204 
3 236 265 141 
3 142 266 205 
3 230 146 267 
3 232 203 144 
3 145 201 268 
3 202 149 269 
3 206 270 147 
3 148 271 272 
3 269 152 210 
3 272 273 150 
3 151 274 211 
3 267 155 239 
3 268 209 153 
3 154 207 240 
3 208 158 246 
3 212 275 156 
3 157 276 247 
3 263 161 216 
3 264 238 159 
3 160 237 217 
3 260 164 277 
3 262 215 162 
3 163 213 278 
3 214 167 279 
3 218 243 165 
3 166 241 280 
3 245 170 222 
3 248 281 168 
3 169 282 223 
3 242 173 283 
3 244 221 171 
3 172 219 284 
3 220 176 285 
3 224 286 174 
3 175 287 288 
3 25 81 83 
3 81 26 82 
3 83 82 27 
3 28 84 86 
3 84 29 85 
3 86 85 30 
3 31 87 89 
3 87 32 88 
3 89 88 33 
3 34 90 92 
3 90 35 91 
3 92 91 36 
3 37 93 95 
3 93 38 94 
3 95 94 39 
3 40 96 98 
3 96 41 97 
3 98 97 42 
3 43 99 101 
3 99 44 100 
3 101 100 45 
3 46 102 104 
3 102 47 103 
3 104 103 48 
3 49 105 107 
3 105 50 106 
3 107 106 26 
3 51 108 110 
3 108 25 109 
3 110 109 52 
3 27 111 113 
3 111 53 112 
3 113 112 54 
3 55 114 116 
3 114 56 115 
3 116 115 29 
3 57 117 119 
3 117 28 118 
3 119 118 58 
3 30 120 122 
3 120 59 121 
3 122 121 60 
3 61 123 125 
3 123 62 124 
3 125 124 32 
3 63 126 128 
3 126 31 127 
3 128 127 50 
3 33 129 131 
3 129 64 130 
3 131 130 53 
3 65 132 134 
3 132 49 133 
3 134 133 35 
3 66 135 137 
3 135 34 136 
3 137 136 67 
3 36 138 140 
3 138 51 139 
3 140 139 68 
3 54 141 143 
3 141 69 142 
3 143 142 38 
3 52 144 146 
3 144 37 145 
3 146 145 70 
3 39 147 149 
3 147 71 148 
3 149 148 72 
3 72 150 152 
3 150 73 151 
3 152 151 41 
3 70 153 155 
3 153 40 154 
3 155 154 56 
3 42 156 158 
3 156 74 157 
3 158 157 59 
3 68 159 161 
3 159 55 160 
3 161 160 44 
3 67 162 164 
3 162 43 163 
3 164 163 75 
3 45 165 167 
3 165 57 166 
3 167 166 76 
3 60 168 170 
3 168 77 169 
3 170 169 47 
3 58 171 173 
3 171 46 172 
3 173 172 78 
3 48 174 176 
3 174 79 175 
3 176 175 80 
3 10 177 178 
3 177 25 83 
3 178 83 27 
3 25 179 81 
3 179 9 180 
3 81 180 26 
3 27 82 182 
3 82 26 181 
3 182 181 11 
3 13 183 184 
3 183 28 86 
3 184 86 30 
3 28 185 84 
3 185 12 186 
3 84 186 29 
3 30 85 188 
3 85 29 187 
3 188 187 14 
3 11 189 190 
3 189 31 89 
3 190 89 33 
3 31 191 87 
3 191 15 192 
3 87 192 32 
3 33 88 194 
3 88 32 193 
3 194 193 16 
3 18 195 196 
3 195 34 92 
3 196 92 36 
3 34 197 90 
3 197 17 198 
3 90 198 35 
3 36 91 200 
3 91 35 199 
3 200 199 9 
3 19 201 202 
3 201 37 95 
3 202 95 39 
3 37 203 93 
3 203 10 204 
3 93 204 38 
3 39 94 206 
3 94 38 205 
3 206 205 20 
3 14 207 208 
3 207 40 98 
3 208 98 42 
3 40 209 96 
3 209 19 210 
3 96 210 41 
3 42 97 212 
3 97 41 211 
3 212 211 21 
3 22 213 214 
3 213 43 101 
3 214 101 45 
3 43 215 99 
3 215 18 216 
3 99 216 44 
3 45 100 218 
3 100 44 217 
3 218 217 12 
3 23 219 220 
3 219 46 104 
3 220 104 48 
3 46 221 102 
3 221 13 222 
3 102 222 47 
3 48 103 224 
3 103 47 223 
3 224 223 24 
3 9 225 180 
3 225 49 107 
3 180 107 26 
3 49 226 105 
3 226 4 227 
3 105 227 50 
3 26 106 181 
3 106 50 228 
3 181 228 11 
3 5 229 230 
3 229 51 110 
3 230 110 52 
3 51 231 108 
3 231 9 179 
3 108 179 25 
3 52 109 232 
3 109 25 177 
3 232 177 10 
3 10 178 233 
3 178 27 113 
3 233 113 54 
3 27 182 111 
3 182 11 234 
3 111 234 53 
3 54 112 236 
3 112 53 235 
3 236 235 6 
3 12 237 186 
3 237 55 116 
3 186 116 29 
3 55 238 114 
3 238 5 239 
3 114 239 56 
3 29 115 187 
3 115 56 240 
3 187 240 14 
3 7 241 242 
3 241 57 119 
3 242 119 58 
3 57 243 117 
3 243 12 185 
3 117 185 28 
3 58 118 244 
3 118 28 183 
3 244 183 13 
3 13 184 245 
3 184 30 122 
3 245 122 60 
3 30 188 120 
3 188 14 246 
3 120 246 59 
3 60 121 248 
3 121 59 247 
3 248 247 8 
3 15 249 192 
3 249 61 125 
3 192 125 32 
3 61 250 123 
3 250 0 251 
3 123 251 62 
3 32 124 193 
3 124 62 252 
3 193 252 16 
3 4 253 227 
3 253 63 128 
3 227 128 50 
3 63 254 126 
3 254 15 191 
3 126 191 31 
3 50 127 228 
3 127 31 189 
3 228 189 11 
3 11 190 234 
3 190 33 131 
3 234 131 53 
3 33 194 129 
3 194 16 255 
3 129 255 64 
3 53 130 235 
3 130 64 256 
3 235 256 6 
3 17 257 198 
3 257 65 134 
3 198 134 35 
3 65 258 132 
3 258 4 226 
3 132 226 49 
3 35 133 199 
3 133 49 225 
3 199 225 9 
3 1 259 260 
3 259 66 137 
3 260 137 67 
3 66 261 135 
3 261 17 197 
3 135 197 34 
3 67 136 262 
3 136 34 195 
3 262 195 18 
3 18 196 263 
3 196 36 140 
3 263 140 68 
3 36 200 138 
3 200 9 231 
3 138 231 51 
3 68 139 264 
3 139 51 229 
3 264 229 5 
3 10 233 204 
3 233 54 143 
3 204 143 38 
3 54 236 141 
3 236 6 265 
3 141 265 69 
3 38 142 205 
3 142 69 266 
3 205 266 20 
3 5 230 267 
3 230 52 146 
3 267 146 70 
3 52 232 144 
3 232 10 203 
3 144 203 37 
3 70 145 268 
3 145 37 201 
3 268 201 19 
3 19 202 269 
3 202 39 149 
3 269 149 72 
3 39 206 147 
3 206 20 270 
3 147 270 71 
3 72 148 272 
3 148 71 271 
3 272 271 2 
3 19 269 210 
3 269 72 152 
3 210 152 41 
3 72 272 150 
3 272 2 273 
3 150 273 73 
3 41 151 211 
3 151 73 274 
3 211 274 21 
3 5 267 239 
3 267 70 155 
3 239 155 56 
3 70 268 153 
3 268 19 209 
3 153 209 40 
3 56 154 240 
3 154 40 207 
3 240 207 14 
3 14 208 246 
3 208 42 158 
3 246 158 59 
3 42 212 156 
3 212 21 275 
3 156 275 74 
3 59 157 247 
3 157 74 276 
3 247 276 8 
3 18 263 216 
3 263 68 161 
3 216 161 44 
3 68 264 159 
3 264 5 238 
3 159 238 55 
3 44 160 217 
3 160 55 237 
3 217 237 12 
3 1 260 277 
3 260 67 164 
3 277 164 75 
3 67 262 162 
3 262 18 215 
3 162 215 43 
3 75 163 278 
3 163 43 213 
3 278 213 22 
3 22 214 279 
3 214 45 167 
3 279 167 76 
3 45 218 165 
3 218 12 243 
3 165 243 57 
3 76 166 280 
3 166 57 241 
3 280 241 7 
3 13 245 222 
3 245 60 170 
3 222 170 47 
3 60 248 168 
3 248 8 281 
3 168 281 77 
3 47 169 223 
3 169 77 282 
3 223 282 24 
3 7 242 283 
3 242 58 173 
3 283 173 78 
3 58 244 171 
3 244 13 221 
3 171 221 46 
3 78 172 284 
3 172 46 219 
3 284 219 23 
3 23 220 285 
3 220 48 176 
3 285 176 80 
3 48 224 174 
3 224 24 286 
3 174 286 79 
3 80 175 288 
3 175 79 287 
3 288 287 3 
