ply
format ascii 1.0
comment VCGLIB generated
element vertex 17
property float x
property float y
property float z
property float nx
property float ny
property float nz
property float texture_u
property float texture_v
element face 4
property list uchar int vertex_indices
end_header
-1 2 0 0 0 0 0.000000 1.000000
1 2 0 0 0 0 1.000000 1.000000
-1 0 0 0 0 0 0.000000 0.000000
1 0 0 0 0 0 1.000000 0.000000
-1 2 2 0 0 0 0.000000 1.000000
1 2 2 0 0 0 1.000000 1.000000
-1 2 0 0 0 0 0.000000 0.000000
1 2 0 0 0 0 1.000000 0.000000
1 2 2 0 0 0 0.000000 1.000000
1 0 2 0 0 0 1.000000 1.000000
1 0 0 0 0 0 0.000000 0.000000
1 2 0 0 0 0 1.000000 0.000000
1 0 2 0 0 0 0.000000 1.000000
-1 0 2 0 0 0 1.000000 1.000000
1 0 0 0 0 0 0.000000 0.000000
-1 0 0 0 0 0 1.000000 0.000000
0 0 1 0 0 0 0.500000 0.500000
3 16 13 12 
3 16 12 14 
3 16 14 15 
3 16 15 13 
